<svg width="113" height="94" viewBox="0 0 113 94" fill="none" xmlns="http://www.w3.org/2000/svg">
<rect width="17.1404" height="17.1404" transform="matrix(-1 0 0 1 86 63.6228)" fill="#0074E0"/>
<rect width="17.1404" height="17.1404" transform="matrix(-1 0 0 1 86 42.9963)" fill="#0074E0"/>
<rect width="17.1404" height="17.1404" transform="matrix(-1 0 0 1 86 22.3697)" fill="#0074E0"/>
<rect width="17.1404" height="17.1404" transform="matrix(-1 0 0 1 65.373 63.6228)" fill="#0074E0"/>
<rect width="17.1404" height="17.1404" transform="matrix(-1 0 0 1 65.373 42.9963)" fill="#0074E0"/>
<rect width="17.1404" height="17.1404" transform="matrix(-0.642152 0.766577 0.766577 0.642152 38.542 1.4901)" fill="#0074E0"/>
<rect width="17.1404" height="17.1404" transform="matrix(-1 0 0 1 44.7471 63.6228)" fill="#0074E0"/>
<rect width="17.1404" height="17.1404" transform="matrix(-0.840416 -0.541941 -0.541941 0.840416 38.0649 37.7596)" fill="#0074E0"/>
<rect width="17.1404" height="17.1404" transform="matrix(-0.996017 0.0891662 0.0891662 0.996017 17.0723 0)" fill="#0074E0"/>
</svg>
